HIERARCHY
ROOT joint_0
{
	OFFSET 3.952459 0.000000 2.427596
	CHANNELS 6 Xposition Yposition Zposition Yrotation Xrotation Zrotation 
	JOINT joint_1
	{
		OFFSET -0.697764 95.894905 -0.542176
		CHANNELS 3 Yrotation Xrotation Zrotation
		JOINT joint_2
		{
			OFFSET -0.000000 9.717225 -1.180208
			CHANNELS 3 Yrotation Xrotation Zrotation
			JOINT joint_3
			{
				OFFSET -0.000000 11.336825 -1.376934
				CHANNELS 3 Yrotation Xrotation Zrotation
				JOINT joint_4
				{
					OFFSET -0.000000 12.956345 -1.573654
					CHANNELS 3 Yrotation Xrotation Zrotation
					JOINT joint_5
					{
						OFFSET -0.000000 14.575974 -1.770440
						CHANNELS 3 Yrotation Xrotation Zrotation
						JOINT joint_6
						{
							OFFSET -0.000000 6.720198 1.972157
							CHANNELS 3 Yrotation Xrotation Zrotation
							End Site
							{
								OFFSET 0.000000 0.000000 0.000000
							}
						}
					}
					JOINT joint_7
					{
						OFFSET 6.140119 12.877849 -1.790937
						CHANNELS 3 Yrotation Xrotation Zrotation
						JOINT joint_8
						{
							OFFSET 12.545027 -3.431417 -0.038760
							CHANNELS 3 Yrotation Xrotation Zrotation
							JOINT joint_9
							{
								OFFSET 25.447289 -1.876389 -1.528865
								CHANNELS 3 Yrotation Xrotation Zrotation
								JOINT joint_10
								{
									OFFSET 23.367495 0.877640 0.962825
									CHANNELS 3 Yrotation Xrotation Zrotation
									End Site
									{
										OFFSET 0.000000 0.000000 0.000000
									}
								}
							}
						}
					}
					JOINT joint_11
					{
						OFFSET -6.140131 12.877828 -1.749914
						CHANNELS 3 Yrotation Xrotation Zrotation
						JOINT joint_12
						{
							OFFSET -12.545005 -3.431376 0.041026
							CHANNELS 3 Yrotation Xrotation Zrotation
							JOINT joint_13
							{
								OFFSET -25.447325 -1.876449 -1.640970
								CHANNELS 3 Yrotation Xrotation Zrotation
								JOINT joint_14
								{
									OFFSET -23.367445 0.877640 0.922386
									CHANNELS 3 Yrotation Xrotation Zrotation
									End Site
									{
										OFFSET 0.000000 0.000000 0.000000
									}
								}
							}
						}
					}
				}
			}
		}
		JOINT joint_15
		{
			OFFSET 8.078197 -5.402378 -0.574917
			CHANNELS 3 Yrotation Xrotation Zrotation
			JOINT joint_16
			{
				OFFSET 3.743073 -42.540516 -2.655263
				CHANNELS 3 Yrotation Xrotation Zrotation
				JOINT joint_17
				{
					OFFSET 3.359007 -41.940838 -2.898166
					CHANNELS 3 Yrotation Xrotation Zrotation
					JOINT joint_18
					{
						OFFSET 1.133375 -9.116495 13.336108
						CHANNELS 3 Yrotation Xrotation Zrotation
						End Site
						{
							OFFSET 0.000000 0.000000 0.000000
						}
					}
				}
			}
		}
		JOINT joint_19
		{
			OFFSET -8.078201 -5.402399 -0.712443
			CHANNELS 3 Yrotation Xrotation Zrotation
			JOINT joint_20
			{
				OFFSET -3.743070 -42.540485 -2.500303
				CHANNELS 3 Yrotation Xrotation Zrotation
				JOINT joint_21
				{
					OFFSET -3.359003 -41.940788 -2.955719
					CHANNELS 3 Yrotation Xrotation Zrotation
					JOINT joint_22
					{
						OFFSET -1.133401 -9.116735 13.400520
						CHANNELS 3 Yrotation Xrotation Zrotation
						End Site
						{
							OFFSET 0.000000 0.000000 0.000000
						}
					}
				}
			}
		}
	}
}
MOTION
Frames: 14
Frame Time: 0.016667
3.952459 0.000000 2.427596 -8.991904 0.000000 0.000000 3.612838 -2.612255 4.656657 -0.938752 1.440317 -0.831652 -2.033820 3.055088 -1.677319 -2.155095 3.158190 -1.679741 10.926674 9.155037 7.749810 15.217031 11.095999 -13.900715 -5.498064 -0.296715 -14.511580 -50.388969 4.894297 -48.652950 -50.317238 -1.135770 5.607368 0.107817 20.448980 -9.198017 0.211903 -0.818435 17.157295 23.069448 16.441231 61.026855 27.104408 -0.501908 -4.947249 1.546128 7.034980 -3.602482 7.035998 1.409427 -6.681497 -1.937606 14.215466 2.816961 -0.748085 -12.914424 -0.167509 0.000057 -0.001456 -0.000419 -9.679992 -28.698967 -1.616708 -3.164199 40.982647 -8.191287 -1.891137 -4.512568 3.305473 -0.000257 -0.002941 -0.000608 
3.498426 0.000000 3.249639 -10.665509 0.000000 0.000000 4.420309 -0.334716 1.375806 -0.883148 1.518698 -0.550223 -1.801074 3.137545 -1.088968 -1.825479 3.148797 -1.082402 2.853658 5.600533 3.152052 5.093640 8.149986 -4.141883 -2.497496 -0.378701 -15.662502 -33.695927 12.327588 -50.891312 -35.791962 -1.078098 5.882689 -0.841711 10.431778 -1.177428 -0.639763 -0.450529 17.185049 21.927717 16.400370 58.571316 22.560423 -0.399391 -5.090195 -0.058323 3.259798 -1.561002 12.076886 5.851698 -4.087553 0.303700 10.155989 3.114877 0.430235 -12.049133 -2.014812 0.000151 -0.002386 0.000753 -8.129247 -26.749552 1.890734 -1.209010 25.999029 -5.192887 -0.740554 0.089877 1.231388 -0.000123 -0.001773 -0.000781 
3.226021 0.000000 4.214940 -11.181847 0.000000 0.000000 4.333565 -0.528382 1.416195 -0.881683 1.556234 -0.583311 -1.769831 3.224446 -1.158866 -1.774091 3.240086 -1.153533 2.848173 5.601684 3.033689 4.984515 8.030659 -4.027565 -2.536532 -0.400959 -15.788608 -33.798668 11.887335 -50.249176 -35.490253 -1.072980 5.960718 -0.866527 10.238961 -0.859558 -0.546523 -0.449851 17.304211 22.209517 16.563597 58.664307 21.028898 -0.390492 -4.790535 -0.310389 2.977445 -1.116114 12.199448 7.109630 -4.011124 0.274047 9.496532 3.008314 0.187719 -12.617713 -1.770548 0.000153 -0.002432 0.000809 -7.895523 -27.197618 1.936364 -1.105201 25.549492 -5.274955 -0.515174 1.264997 0.131905 -0.000124 -0.001744 -0.000766 
2.951278 0.000000 5.233704 -11.628118 0.000000 0.000000 4.165624 -0.675949 1.341962 -0.878410 1.589333 -0.592155 -1.735282 3.301760 -1.175908 -1.722887 3.320054 -1.170154 2.894010 5.635404 2.884633 4.907514 7.914827 -3.877795 -2.541402 -0.422571 -15.922778 -33.847076 11.611515 -49.713181 -35.177689 -1.084272 6.027717 -0.915332 10.181001 -0.610806 -0.407705 -0.451137 17.406179 22.544701 16.694880 58.829002 19.468792 -0.354735 -4.466740 -0.658663 2.764074 -0.560509 12.295311 8.428173 -3.732593 0.283906 8.730409 2.919058 0.019489 -12.871576 -1.682006 0.000155 -0.002485 0.000870 -7.815639 -27.546253 2.225246 -0.808860 25.054604 -5.208059 -0.267627 2.541621 -0.526618 -0.000124 -0.001703 -0.000743 
2.671683 0.000000 6.302424 -12.010486 0.000000 0.000000 3.999236 -0.759888 1.173034 -0.885748 1.615960 -0.572665 -1.721549 3.367996 -1.135378 -1.695107 3.389652 -1.129590 2.993376 5.679988 2.624633 4.831961 7.814166 -3.665130 -2.523608 -0.445914 -16.091299 -33.830521 11.374068 -49.243732 -34.820961 -1.105137 6.049998 -0.934976 10.146197 -0.403911 -0.253340 -0.444461 17.509357 22.854137 16.783827 59.056053 18.013271 -0.318686 -4.137922 -1.091685 2.690999 0.096756 12.442741 9.607231 -3.352064 0.362407 8.058793 2.879684 -0.080260 -13.123995 -1.697460 0.000159 -0.002549 0.000934 -7.780261 -27.845171 2.676383 -0.372529 24.667645 -5.061704 0.012347 3.736056 -0.917952 -0.000123 -0.001651 -0.000714 
2.388150 0.000000 7.416939 -12.334538 0.000000 0.000000 3.931689 -0.764798 0.921562 -0.901830 1.639457 -0.536937 -1.731421 3.425246 -1.059236 -1.698451 3.450715 -1.052540 3.055512 5.687108 2.336283 4.704977 7.711157 -3.409378 -2.519964 -0.461710 -16.239700 -33.815456 11.129379 -48.925396 -34.417706 -1.117796 6.029069 -0.965210 10.079133 -0.198642 -0.132520 -0.435501 17.602333 23.145082 16.946566 59.377674 16.759155 -0.293924 -3.816012 -1.489366 2.727361 0.795745 12.663518 10.716659 -2.907715 0.398350 7.435713 2.863498 -0.174629 -13.358484 -1.821800 0.000163 -0.002612 0.000997 -7.815270 -28.103518 3.261538 0.158752 24.388483 -4.916888 0.344263 4.948996 -1.196609 -0.000121 -0.001601 -0.000698 
2.100291 0.000000 8.569240 -12.604627 0.000000 0.000000 4.000150 -0.683176 0.637774 -0.932788 1.656610 -0.488445 -1.776555 3.465422 -0.959621 -1.740926 3.496837 -0.953898 3.080320 5.664440 2.040345 4.551662 7.620584 -3.135654 -2.536345 -0.474393 -16.360210 -33.779213 10.883749 -48.763233 -33.998165 -1.120876 5.981697 -1.000446 9.966472 0.025176 -0.047030 -0.425023 17.665997 23.516373 17.285185 59.844196 15.770527 -0.271472 -3.485602 -1.847994 2.867198 1.566253 12.924767 11.699825 -2.416528 0.369396 6.954889 2.811819 -0.331948 -13.665241 -1.993576 0.000165 -0.002663 0.001048 -7.831377 -28.403681 3.847484 0.641283 24.522905 -4.866014 0.601940 5.939373 -1.287507 -0.000119 -0.001559 -0.000685 
1.814357 0.000000 9.755771 -12.823789 0.000000 0.000000 4.138793 -0.515588 0.380362 -0.977629 1.658452 -0.432133 -1.857282 3.470389 -0.850014 -1.820141 3.507685 -0.850019 3.024446 5.560081 1.798898 4.349848 7.571823 -2.894684 -2.569384 -0.484579 -16.455208 -33.681210 10.612295 -48.754513 -33.506714 -1.083738 5.928704 -1.042565 9.646371 0.285326 -0.019106 -0.414816 17.700241 24.041510 17.776901 60.429035 15.045429 -0.252870 -3.173499 -2.160884 3.101801 2.398077 13.203896 12.552585 -1.853687 0.334329 6.622363 2.785956 -0.446861 -13.967518 -2.304143 0.000166 -0.002696 0.001096 -7.575419 -28.678389 4.251567 1.021551 24.749489 -4.840067 0.778565 6.739135 -1.280981 -0.000119 -0.001531 -0.000701 
1.528008 0.000000 10.973609 -12.994016 0.000000 0.000000 4.257998 -0.296298 0.124891 -1.037120 1.647809 -0.365993 -1.965613 3.448520 -0.726260 -1.925694 3.490492 -0.733164 2.944713 5.378627 1.548164 4.124970 7.525757 -2.654437 -2.600734 -0.504123 -16.552198 -33.490913 10.382573 -48.782906 -32.937843 -1.023697 5.871494 -1.107339 9.164383 0.616482 -0.046241 -0.396142 17.739273 24.537170 18.224916 61.011520 14.277834 -0.241054 -2.892003 -2.498595 3.400132 3.274252 13.499763 13.194523 -1.193131 0.274396 6.537385 2.794231 -0.476132 -14.196177 -2.730666 0.000167 -0.002728 0.001152 -7.020309 -28.826649 4.418356 1.331675 25.045527 -4.826492 0.987085 6.955312 -1.191265 -0.000116 -0.001492 -0.000720 
1.238976 0.000000 12.222740 -13.117923 0.000000 0.000000 4.367836 -0.042437 -0.167359 -1.107368 1.621200 -0.291698 -2.091818 3.400396 -0.586008 -2.045957 3.447275 -0.597909 2.898966 5.233974 1.296309 3.923613 7.438994 -2.391656 -2.630347 -0.529090 -16.649969 -33.203049 10.224358 -48.845051 -32.285137 -0.983628 5.834042 -1.171222 8.670033 0.980574 -0.088657 -0.377343 17.783066 24.890734 18.518414 61.490700 13.333629 -0.227206 -2.642230 -2.828076 3.575072 4.120514 13.785542 13.551976 -0.496161 0.209043 6.787100 2.867689 -0.374895 -14.280107 -3.228252 0.000169 -0.002759 0.001204 -6.382828 -28.810772 4.619128 1.551715 25.419851 -4.888288 1.106358 6.716623 -1.292131 -0.000111 -0.001447 -0.000740 
0.948369 0.000000 13.502559 -13.195535 0.000000 0.000000 4.447232 0.190803 -0.498710 -1.174751 1.585611 -0.200964 -2.211086 3.340362 -0.408008 -2.158039 3.393024 -0.422502 2.882060 5.127864 0.973002 3.717896 7.345735 -2.110370 -2.622875 -0.551905 -16.779804 -32.934120 10.262331 -49.017006 -31.513880 -0.960259 5.807879 -1.242064 8.196612 1.343409 -0.139097 -0.361700 17.826845 24.934128 18.618870 61.761742 12.223825 -0.197532 -2.429702 -3.194526 3.729371 4.863439 14.008358 13.679378 0.222563 0.100604 7.406918 2.972438 -0.266971 -13.908712 -3.585321 0.000172 -0.002791 0.001274 -5.656442 -28.609602 4.826083 1.716051 25.837637 -4.994339 1.110422 6.330093 -1.564223 -0.000106 -0.001397 -0.000759 
0.658486 0.000000 14.811381 -13.225950 0.000000 0.000000 4.529747 0.381463 -0.850853 -1.241358 1.544231 -0.096489 -2.326427 3.270189 -0.200213 -2.262309 3.326613 -0.217630 2.829873 5.035936 0.630669 3.462540 7.334274 -1.825513 -2.580473 -0.571442 -16.949856 -32.640724 10.295363 -49.269032 -30.620539 -0.938712 5.803293 -1.287564 7.812330 1.653118 -0.230860 -0.347757 17.886013 24.773472 18.714098 61.812744 11.133763 -0.157745 -2.251086 -3.530714 3.810781 5.407265 14.259468 13.536561 0.998194 -0.092614 8.523659 3.050445 -0.201252 -13.057927 -3.896503 0.000174 -0.002816 0.001336 -4.911523 -28.230877 5.043227 1.789544 26.189550 -5.085570 0.989531 5.976898 -1.942259 -0.000102 -0.001359 -0.000783 
0.371409 0.000000 16.155170 -13.212450 0.000000 0.000000 4.677783 0.533943 -1.189002 -1.311697 1.501505 0.005784 -2.450675 3.192953 0.004005 -2.375588 3.248303 -0.018688 2.759860 4.912799 0.354085 3.220158 7.399026 -1.587365 -2.542724 -0.590510 -17.156414 -32.252541 10.316368 -49.552784 -29.688536 -0.914990 5.793002 -1.304476 7.528411 1.904732 -0.426390 -0.324407 17.992174 24.375601 18.812035 61.770020 10.141864 -0.135521 -2.102204 -3.884819 3.918744 5.854121 14.518770 13.082190 1.753464 -0.369904 10.154353 3.164439 -0.282154 -11.568511 -3.982663 0.000177 -0.002838 0.001395 -4.444305 -27.685455 5.328850 1.723976 26.505661 -5.204698 0.907413 5.376247 -2.220733 -0.000097 -0.001323 -0.000799 
0.086049 0.000000 17.539299 -13.157791 0.000000 0.000000 4.810144 0.676988 -1.498154 -1.377113 1.456234 0.096446 -2.563438 3.111963 0.184118 -2.475154 3.154179 0.150505 2.674232 4.652931 0.206687 3.022589 7.466300 -1.404191 -2.436079 -0.601434 -17.404116 -31.824093 10.346596 -49.923836 -28.797470 -0.878298 5.801515 -1.300122 7.372625 2.135321 -0.665048 -0.300314 18.134760 23.829399 18.824696 61.654617 9.335714 -0.130001 -1.967380 -4.184736 3.982160 6.155129 14.755653 12.333292 2.396874 -0.721305 12.184920 3.308604 -0.323792 -9.808689 -4.132101 0.000177 -0.002831 0.001432 -4.130634 -26.987154 5.619714 1.576382 26.707985 -5.267663 0.802509 4.856027 -2.515582 -0.000091 -0.001288 -0.000824 
